<svg xmlns="http://www.w3.org/2000/svg" width="1000" height="700" viewBox="0 0 1000 700"><rect width="100%" height="100%" fill="white"/><text x="500.0" y="28" text-anchor="middle" font-size="22" font-family="Arial" fill="#3E342D">风险模型校准图（严格随机留出审计）</text><text x="75" y="55" font-size="18" font-family="Arial" fill="#3E342D">diabetes</text><line x1="75" y1="315" x2="505" y2="315" stroke="#A99D91"/><line x1="75" y1="75" x2="75" y2="315" stroke="#A99D91"/><line x1="75.0" y1="315.0" x2="505.0" y2="55.0" stroke="#B9AFA2" stroke-dasharray="6 5"/><polyline points="80.7,311.8 131.1,239.6 155.5,145.4 299.4,88.9" fill="none" stroke="#E8864A" stroke-width="3"/><circle cx="80.7" cy="311.8" r="4" fill="#E8864A"/><circle cx="131.1" cy="239.6" r="4" fill="#E8864A"/><circle cx="155.5" cy="145.4" r="4" fill="#E8864A"/><circle cx="299.4" cy="88.9" r="4" fill="#E8864A"/><text x="75" y="337" font-size="12" font-family="Arial" fill="#6E6257">预测概率</text><text x="425" y="337" font-size="12" font-family="Arial" fill="#6E6257">实际率</text><text x="545" y="55" font-size="18" font-family="Arial" fill="#3E342D">heart_disease</text><line x1="545" y1="315" x2="975" y2="315" stroke="#A99D91"/><line x1="545" y1="75" x2="545" y2="315" stroke="#A99D91"/><line x1="545.0" y1="315.0" x2="975.0" y2="55.0" stroke="#B9AFA2" stroke-dasharray="6 5"/><polyline points="632.2,262.2" fill="none" stroke="#E8864A" stroke-width="3"/><circle cx="632.2" cy="262.2" r="4" fill="#E8864A"/><text x="545" y="337" font-size="12" font-family="Arial" fill="#6E6257">预测概率</text><text x="895" y="337" font-size="12" font-family="Arial" fill="#6E6257">实际率</text><text x="75" y="370" font-size="18" font-family="Arial" fill="#3E342D">hypertension</text><line x1="75" y1="630" x2="505" y2="630" stroke="#A99D91"/><line x1="75" y1="390" x2="75" y2="630" stroke="#A99D91"/><line x1="75.0" y1="630.0" x2="505.0" y2="370.0" stroke="#B9AFA2" stroke-dasharray="6 5"/><polyline points="142.2,587.9 283.3,511.2 448.9,630.0" fill="none" stroke="#E8864A" stroke-width="3"/><circle cx="142.2" cy="587.9" r="4" fill="#E8864A"/><circle cx="283.3" cy="511.2" r="4" fill="#E8864A"/><circle cx="448.9" cy="630.0" r="4" fill="#E8864A"/><text x="75" y="652" font-size="12" font-family="Arial" fill="#6E6257">预测概率</text><text x="425" y="652" font-size="12" font-family="Arial" fill="#6E6257">实际率</text><text x="545" y="370" font-size="18" font-family="Arial" fill="#3E342D">stroke</text><line x1="545" y1="630" x2="975" y2="630" stroke="#A99D91"/><line x1="545" y1="390" x2="545" y2="630" stroke="#A99D91"/><line x1="545.0" y1="630.0" x2="975.0" y2="370.0" stroke="#B9AFA2" stroke-dasharray="6 5"/><polyline points="555.1,623.8 753.3,630.0 918.9,630.0" fill="none" stroke="#E8864A" stroke-width="3"/><circle cx="555.1" cy="623.8" r="4" fill="#E8864A"/><circle cx="753.3" cy="630.0" r="4" fill="#E8864A"/><circle cx="918.9" cy="630.0" r="4" fill="#E8864A"/><text x="545" y="652" font-size="12" font-family="Arial" fill="#6E6257">预测概率</text><text x="895" y="652" font-size="12" font-family="Arial" fill="#6E6257">实际率</text></svg>