<svg xmlns="http://www.w3.org/2000/svg" width="1000" height="700" viewBox="0 0 1000 700"><rect width="100%" height="100%" fill="white"/><text x="500.0" y="28" text-anchor="middle" font-size="22" font-family="Arial" fill="#3E342D">风险模型决策曲线（阈值仅作复测分层研究）</text><text x="75" y="55" font-size="18" font-family="Arial" fill="#3E342D">diabetes</text><line x1="75" y1="315" x2="505" y2="315" stroke="#A99D91"/><line x1="75" y1="75" x2="75" y2="315" stroke="#A99D91"/><polyline points="79.3,56.0 83.6,56.8 87.9,57.1 96.5,57.1 118.0,57.1 161.0,57.3 204.0,57.6 290.0,57.6" fill="none" stroke="#E8864A" stroke-width="3"/><polyline points="79.3,56.0 83.6,58.7 87.9,61.4 96.5,67.1 118.0,82.4 161.0,118.8 204.0,165.5 290.0,315.0" fill="none" stroke="#8D6E97" stroke-width="3" stroke-dasharray="7 5"/><polyline points="79.3,57.7 83.6,57.7 87.9,57.7 96.5,57.7 118.0,57.7 161.0,57.7 204.0,57.7 290.0,57.7" fill="none" stroke="#777777" stroke-width="3" stroke-dasharray="2 5"/><text x="75" y="337" font-size="12" font-family="Arial" fill="#6E6257">阈值</text><text x="440" y="337" font-size="12" font-family="Arial" fill="#6E6257">净获益</text><text x="545" y="55" font-size="18" font-family="Arial" fill="#3E342D">heart_disease</text><line x1="545" y1="315" x2="975" y2="315" stroke="#A99D91"/><line x1="545" y1="75" x2="545" y2="315" stroke="#A99D91"/><polyline points="549.3,55.0 553.6,57.6 557.9,58.6 566.5,58.6 588.0,58.6 631.0,58.6 674.0,58.6 760.0,58.6" fill="none" stroke="#E8864A" stroke-width="3"/><polyline points="549.3,55.0 553.6,57.7 557.9,60.5 566.5,66.2 588.0,81.5 631.0,118.0 674.0,164.9 760.0,315.0" fill="none" stroke="#8D6E97" stroke-width="3" stroke-dasharray="7 5"/><polyline points="549.3,58.6 553.6,58.6 557.9,58.6 566.5,58.6 588.0,58.6 631.0,58.6 674.0,58.6 760.0,58.6" fill="none" stroke="#777777" stroke-width="3" stroke-dasharray="2 5"/><text x="545" y="337" font-size="12" font-family="Arial" fill="#6E6257">阈值</text><text x="910" y="337" font-size="12" font-family="Arial" fill="#6E6257">净获益</text><text x="75" y="370" font-size="18" font-family="Arial" fill="#3E342D">hypertension</text><line x1="75" y1="630" x2="505" y2="630" stroke="#A99D91"/><line x1="75" y1="390" x2="75" y2="630" stroke="#A99D91"/><polyline points="79.3,370.0 83.6,372.6 87.9,374.2 96.5,377.6 118.0,379.8 161.0,380.2 204.0,380.0 290.0,380.0" fill="none" stroke="#E8864A" stroke-width="3"/><polyline points="79.3,370.0 83.6,372.7 87.9,375.5 96.5,381.2 118.0,396.5 161.0,433.0 204.0,479.9 290.0,630.0" fill="none" stroke="#8D6E97" stroke-width="3" stroke-dasharray="7 5"/><polyline points="79.3,380.0 83.6,380.0 87.9,380.0 96.5,380.0 118.0,380.0 161.0,380.0 204.0,380.0 290.0,380.0" fill="none" stroke="#777777" stroke-width="3" stroke-dasharray="2 5"/><text x="75" y="652" font-size="12" font-family="Arial" fill="#6E6257">阈值</text><text x="440" y="652" font-size="12" font-family="Arial" fill="#6E6257">净获益</text><text x="545" y="370" font-size="18" font-family="Arial" fill="#3E342D">stroke</text><line x1="545" y1="630" x2="975" y2="630" stroke="#A99D91"/><line x1="545" y1="390" x2="545" y2="630" stroke="#A99D91"/><polyline points="549.3,372.6 553.6,372.6 557.9,372.6 566.5,372.6 588.0,372.6 631.0,372.6 674.0,372.6 760.0,372.6" fill="none" stroke="#E8864A" stroke-width="3"/><polyline points="549.3,373.5 553.6,376.2 557.9,378.9 566.5,384.5 588.0,399.7 631.0,435.7 674.0,481.9 760.0,630.0" fill="none" stroke="#8D6E97" stroke-width="3" stroke-dasharray="7 5"/><polyline points="549.3,372.6 553.6,372.6 557.9,372.6 566.5,372.6 588.0,372.6 631.0,372.6 674.0,372.6 760.0,372.6" fill="none" stroke="#777777" stroke-width="3" stroke-dasharray="2 5"/><text x="545" y="652" font-size="12" font-family="Arial" fill="#6E6257">阈值</text><text x="910" y="652" font-size="12" font-family="Arial" fill="#6E6257">净获益</text></svg>